<svg id="Layer_1" data-name="Layer 1" xmlns="http://www.w3.org/2000/svg" viewBox="0 0 226.75 179.45"><defs><style>.cls-1,.cls-3{fill:#00adbb;}.cls-1,.cls-5{fill-rule:evenodd;}.cls-2{fill:#8ac03f;}.cls-4,.cls-5{fill:#007780;}</style></defs><title>logo</title><path class="cls-1" d="M126.79,66.79a9.62,9.62,0,0,1,1.67-1v-16c0-5.48,4.15-8.8,9.35-8.8a11.59,11.59,0,0,1,11.44,8.43A13.33,13.33,0,0,1,159,65a13.32,13.32,0,0,1,0,23.28,13.33,13.33,0,0,1-9.78,15.55,11.59,11.59,0,0,1-11.44,8.43c-5.2,0-9.35-3.32-9.35-8.79V92.37l-.4.15a3.58,3.58,0,0,1-2.54,0l-.39-.15v11.08c0,5.47-4.15,8.79-9.35,8.79a11.6,11.6,0,0,1-11.44-8.43,13.33,13.33,0,0,1-9.78-15.55,13.33,13.33,0,0,1,0-23.28,13.33,13.33,0,0,1,9.78-15.55A11.6,11.6,0,0,1,115.78,41c5.2,0,9.36,3.32,9.35,8.8v16a9.62,9.62,0,0,1,1.67,1m0,22.4c4.92-1.88,9.66-5.82,11.47-10.36,1.05-2.63,1.23-5.88-.74-8.14A6.59,6.59,0,0,0,126.79,72a6.59,6.59,0,0,0-10.73-1.31c-2,2.26-1.79,5.51-.73,8.14,1.81,4.54,6.54,8.48,11.46,10.36" transform="translate(-13.42 -41)"/><path class="cls-2" d="M126.79,70.18a7.66,7.66,0,0,0-2.1-1.75,7.58,7.58,0,0,0-3.73-1,7.75,7.75,0,0,0-3.11.66,7.17,7.17,0,0,0-4.33,6.46,11.28,11.28,0,0,0,.84,4.65,17.83,17.83,0,0,0,4.84,6.57,23.78,23.78,0,0,0,7.22,4.37l.37.15.37-.15a23.78,23.78,0,0,0,7.22-4.37,18,18,0,0,0,4.85-6.57,11.43,11.43,0,0,0,.83-4.65A7.38,7.38,0,0,0,138.31,70a7.29,7.29,0,0,0-2.58-1.89,7.75,7.75,0,0,0-3.11-.66,7.58,7.58,0,0,0-3.73,1,7.81,7.81,0,0,0-2.1,1.75" transform="translate(-13.42 -41)"/><path class="cls-3" d="M119.23,124.91c-9.28-4-16.91-12-21.39-21A3.7,3.7,0,0,0,91.13,107l4.1,9.72L78.8,105.62l-1.52-22.4a3.7,3.7,0,0,0-3.69-3.45h-.75a3.72,3.72,0,0,0-3.58,2.73c-2.18,7.91-3.35,27.45,3.54,35.86L99.85,138.3l1.66,10.34c3.51,3.14,14.31,7.11,23.36,3.88,0-14.31-.47-24.74-5.64-27.61" transform="translate(-13.42 -41)"/><path class="cls-3" d="M184.32,82.5a3.71,3.71,0,0,0-3.57-2.73H180a3.71,3.71,0,0,0-3.7,3.45l-1.52,22.4-16.43,11.13,4.1-9.73a3.7,3.7,0,0,0-6.71-3.11c-4.47,9-12.11,17-21.39,21-5.17,2.87-5.63,13.3-5.63,27.61,9,3.23,19.84-.74,23.35-3.88l1.66-10.34,27.05-19.94c6.89-8.41,5.72-27.95,3.54-35.86" transform="translate(-13.42 -41)"/><polygon class="cls-4" points="7.27 134.37 0 134.37 0 131.73 17.55 131.73 17.55 134.37 10.28 134.37 10.28 152.95 7.27 152.95 7.27 134.37"/><polygon class="cls-4" points="29.84 145.61 29.84 152.95 26.84 152.95 26.84 145.55 18.41 131.73 21.66 131.73 28.45 142.91 35.27 131.73 38.27 131.73 29.84 145.61"/><polygon class="cls-4" points="39.85 131.73 42.89 131.73 42.89 150.31 54.37 150.31 54.37 152.95 39.85 152.95 39.85 131.73"/><path class="cls-4" d="M84.88,188.64H73.61L71.28,194H68.15l9.61-21.22h3L90.4,194H87.22Zm-1.06-2.42-4.57-10.4-4.58,10.4Z" transform="translate(-13.42 -41)"/><polygon class="cls-4" points="98.38 131.73 98.38 152.95 95.35 152.95 95.35 143.49 83.17 143.49 83.17 152.95 80.14 152.95 80.14 131.73 83.17 131.73 83.17 140.85 95.35 140.85 95.35 131.73 98.38 131.73"/><polygon class="cls-2" points="123.64 131.64 123.64 152.86 118.73 152.86 118.73 144.16 109.09 144.16 109.09 152.86 104.18 152.86 104.18 131.64 109.09 131.64 109.09 140 118.73 140 118.73 131.64 123.64 131.64"/><polygon class="cls-2" points="145.1 148.92 145.1 152.86 128.67 152.86 128.67 131.64 144.7 131.64 144.7 135.58 133.55 135.58 133.55 140.19 143.4 140.19 143.4 144 133.55 144 133.55 148.92 145.1 148.92"/><path class="cls-2" d="M176.4,189.31h-9.85l-1.88,4.55h-5l9.45-21.22h4.85l9.49,21.22h-5.15Zm-1.55-3.73-3.36-8.12-3.37,8.12Z" transform="translate(-13.42 -41)"/><polygon class="cls-2" points="172.22 131.64 177.13 131.64 177.13 148.85 187.77 148.85 187.77 152.86 172.22 152.86 172.22 131.64"/><polygon class="cls-2" points="192.96 135.64 186.17 135.64 186.17 131.64 204.65 131.64 204.65 135.64 197.87 135.64 197.87 152.86 192.96 152.86 192.96 135.64"/><polygon class="cls-2" points="226.75 131.64 226.75 152.86 221.84 152.86 221.84 144.16 212.2 144.16 212.2 152.86 207.29 152.86 207.29 131.64 212.2 131.64 212.2 140 221.84 140 221.84 131.64 226.75 131.64"/><path class="cls-3" d="M66.43,220.45l-2.12-2.12a7.42,7.42,0,0,1-5.32,2c-3.23,0-5.57-1.71-5.57-4.14,0-2,1.11-3.32,3.87-4.89-1.44-1.43-1.92-2.46-1.92-3.64,0-2.14,1.69-3.57,4.3-3.57,2.41,0,4,1.25,4,3.32,0,1.62-1,2.78-3.39,4.16l3.94,3.91a9.85,9.85,0,0,0,1-2.88l1.75.57a10.49,10.49,0,0,1-1.38,3.63L67.66,219ZM63,217.06l-4.53-4.5c-2.23,1.25-2.93,2.18-2.93,3.45,0,1.53,1.43,2.55,3.57,2.55a5.43,5.43,0,0,0,3.89-1.5m-5.62-9.39c0,.81.32,1.41,1.61,2.72,2.1-1.18,2.78-1.91,2.78-2.91s-.75-1.75-2.12-1.75-2.27.8-2.27,1.94" transform="translate(-13.42 -41)"/><polygon class="cls-3" points="85.58 163.28 80.25 179.2 77.87 179.2 73.52 166.48 69.18 179.2 66.75 179.2 61.42 163.28 63.77 163.28 68.07 176.22 72.55 163.28 74.64 163.28 79.03 176.29 83.42 163.28 85.58 163.28"/><polygon class="cls-3" points="99.9 177.22 99.9 179.2 88.35 179.2 88.35 163.28 99.58 163.28 99.58 165.26 90.63 165.26 90.63 170.15 98.61 170.15 98.61 172.08 90.63 172.08 90.63 177.22 99.9 177.22"/><polygon class="cls-3" points="103.59 163.28 105.86 163.28 105.86 177.22 114.48 177.22 114.48 179.2 103.59 179.2 103.59 163.28"/><polygon class="cls-3" points="117.1 163.28 119.37 163.28 119.37 177.22 127.99 177.22 127.99 179.2 117.1 179.2 117.1 163.28"/><polygon class="cls-3" points="144.29 163.28 144.29 179.2 142.43 179.2 132.88 167.33 132.88 179.2 130.6 179.2 130.6 163.28 132.47 163.28 142.02 175.15 142.02 163.28 144.29 163.28"/><polygon class="cls-3" points="160.62 177.22 160.62 179.2 149.07 179.2 149.07 163.28 160.3 163.28 160.3 165.26 151.34 165.26 151.34 170.15 159.33 170.15 159.33 172.08 151.34 172.08 151.34 177.22 160.62 177.22"/><path class="cls-3" d="M176.27,218.38l.84-1.78a8.19,8.19,0,0,0,5.25,1.85c2.75,0,3.94-1.07,3.94-2.46,0-3.89-9.64-1.43-9.64-7.35,0-2.45,1.91-4.54,6.09-4.54a9.39,9.39,0,0,1,5.12,1.41l-.75,1.81a8.29,8.29,0,0,0-4.37-1.29c-2.71,0-3.87,1.14-3.87,2.52,0,3.89,9.65,1.46,9.65,7.3,0,2.44-2,4.53-6.17,4.53a9.45,9.45,0,0,1-6.09-2" transform="translate(-13.42 -41)"/><path class="cls-3" d="M190.39,218.38l.84-1.78a8.2,8.2,0,0,0,5.26,1.85c2.75,0,3.93-1.07,3.93-2.46,0-3.89-9.64-1.43-9.64-7.35,0-2.45,1.91-4.54,6.09-4.54a9.36,9.36,0,0,1,5.12,1.41l-.75,1.81a8.29,8.29,0,0,0-4.37-1.29c-2.7,0-3.86,1.14-3.86,2.52,0,3.89,9.64,1.46,9.64,7.3,0,2.44-2,4.53-6.16,4.53a9.46,9.46,0,0,1-6.1-2" transform="translate(-13.42 -41)"/><path class="cls-5" d="M126.79,66.79a9.62,9.62,0,0,1,1.67-1v-16c0-5.48,4.15-8.8,9.35-8.8a11.59,11.59,0,0,1,11.44,8.43A13.33,13.33,0,0,1,159,65a13.32,13.32,0,0,1,0,23.28,13.33,13.33,0,0,1-9.78,15.55,11.59,11.59,0,0,1-11.44,8.43c-5.2,0-9.35-3.32-9.35-8.79V92.37l-.4.15a3.58,3.58,0,0,1-2.54,0l-.39-.15v11.08c0,5.47-4.15,8.79-9.35,8.79a11.6,11.6,0,0,1-11.44-8.43,13.33,13.33,0,0,1-9.78-15.55,13.33,13.33,0,0,1,0-23.28,13.33,13.33,0,0,1,9.78-15.55A11.6,11.6,0,0,1,115.78,41c5.2,0,9.36,3.32,9.35,8.8v16a9.62,9.62,0,0,1,1.67,1M132,65a10.06,10.06,0,0,1,8.21,3.41c2.85,3.29,2.89,7.89,1.34,11.78-1.72,4.32-5.41,8-9.55,10.46v12.85c0,3.46,2.56,5.23,5.79,5.23,5.11,0,9.07-4.08,8.1-9.26a8.67,8.67,0,0,0-4-5.86,13.67,13.67,0,0,1-3.75,1.8,1.78,1.78,0,1,1-1-3.42,9.84,9.84,0,0,0,7-9.43,1.79,1.79,0,1,1,3.57,0,13.34,13.34,0,0,1-3.12,8.58,12.47,12.47,0,0,1,4.93,8.88,9.77,9.77,0,0,0,1.54-17.38,1.78,1.78,0,0,1,1.88-3,13.42,13.42,0,0,1,4.84,5.27,9.79,9.79,0,0,0,0-16.42A13.42,13.42,0,0,1,153,73.68a1.78,1.78,0,0,1-1.88-3,9.77,9.77,0,0,0-1.54-17.38,12.47,12.47,0,0,1-4.93,8.88,13.34,13.34,0,0,1,3.12,8.58,1.79,1.79,0,1,1-3.57,0,9.84,9.84,0,0,0-7-9.43,1.78,1.78,0,1,1,1-3.42,13.67,13.67,0,0,1,3.75,1.8,8.67,8.67,0,0,0,4-5.86c1-5.18-3-9.27-8.1-9.26-3.23,0-5.8,1.77-5.79,5.24ZM121.57,90.6c-4.14-2.45-7.83-6.14-9.55-10.46-1.55-3.89-1.51-8.49,1.34-11.78A10.07,10.07,0,0,1,121.57,65V49.8c0-3.47-2.57-5.24-5.8-5.24-5.1,0-9.07,4.08-8.1,9.26a8.7,8.7,0,0,0,4,5.86,13.67,13.67,0,0,1,3.75-1.8,1.78,1.78,0,0,1,1,3.42,9.84,9.84,0,0,0-7,9.43,1.79,1.79,0,1,1-3.57,0,13.34,13.34,0,0,1,3.12-8.58A12.42,12.42,0,0,1,104,53.27a9.77,9.77,0,0,0-1.55,17.38,1.78,1.78,0,1,1-1.88,3,13.42,13.42,0,0,1-4.84-5.27,9.8,9.8,0,0,0,0,16.42,13.42,13.42,0,0,1,4.84-5.27,1.78,1.78,0,1,1,1.88,3A9.77,9.77,0,0,0,104,100a12.42,12.42,0,0,1,4.92-8.88,13.34,13.34,0,0,1-3.12-8.58,1.79,1.79,0,1,1,3.57,0,9.84,9.84,0,0,0,7,9.43,1.78,1.78,0,0,1-1,3.42,13.67,13.67,0,0,1-3.75-1.8,8.7,8.7,0,0,0-4,5.86c-1,5.18,3,9.27,8.1,9.26,3.23,0,5.8-1.77,5.8-5.23Zm5.22-1.41c4.92-1.88,9.66-5.82,11.47-10.36,1.05-2.63,1.23-5.88-.74-8.14A6.59,6.59,0,0,0,126.79,72a6.59,6.59,0,0,0-10.73-1.31c-2,2.26-1.79,5.51-.73,8.14,1.81,4.54,6.54,8.48,11.46,10.36" transform="translate(-13.42 -41)"/></svg>